<svg width="19" height="19" viewBox="0 0 19 19" fill="none" xmlns="http://www.w3.org/2000/svg">
<path d="M15.8073 2.11381C15.8619 2.15648 15.9166 2.20241 15.9716 2.24856C16.0342 2.30112 16.0972 2.35396 16.1607 2.40256C16.4082 2.59211 16.8375 3.06605 17.0618 3.31373C17.0769 3.33041 17.0911 3.34607 17.1042 3.36054C17.2824 3.55658 17.4808 3.82746 17.6484 4.07565C18.8183 5.80668 19.3147 8.04277 18.7937 10.1615M15.8073 2.11381L13.112 1.42214C13.959 1.76391 14.6611 2.16989 15.3454 2.70473L15.3456 2.70491C15.3895 2.73917 15.4347 2.77713 15.4932 2.82618L15.501 2.83276C15.5589 2.88126 15.63 2.94079 15.7046 2.99796L16.1598 2.40374L15.7049 2.99819C15.7847 3.05937 15.9316 3.20108 16.1106 3.38887C16.258 3.54355 16.4004 3.70075 16.5054 3.81666C16.5207 3.83353 16.5352 3.84953 16.5488 3.86452L16.5492 3.86498C16.6914 4.02149 16.8664 4.25777 17.0268 4.49529L17.027 4.49562C18.0896 6.06783 18.5311 8.08839 18.0654 9.98242M15.8073 2.11381C15.0666 1.53487 14.3032 1.09403 13.3925 0.726575L15.8073 2.11381ZM18.7937 10.1615L18.0654 9.98242M18.7937 10.1615L18.0654 9.98244C18.0654 9.98244 18.0654 9.98243 18.0654 9.98242M18.7937 10.1615C17.8101 14.161 14.0429 16.5598 10.1878 16.7853M18.0654 9.98242C17.1786 13.5887 13.7535 15.8255 10.144 16.0366M10.144 16.0366C10.1441 16.0366 10.1441 16.0366 10.1441 16.0366L10.1878 16.7853M10.144 16.0366C9.54004 16.0718 9.03866 16.0508 8.44072 15.9705L8.43927 15.9703C8.43021 15.9691 8.41172 15.9658 8.35922 15.9552L8.35105 15.9535C8.30847 15.9449 8.24459 15.9319 8.17931 15.922C8.11083 15.9116 8.0126 15.8998 7.90411 15.9035C7.80101 15.907 7.63312 15.9257 7.46055 16.0195M10.144 16.0366L10.1878 16.7853M10.1878 16.7853C9.53403 16.8235 8.98455 16.8003 8.3409 16.7139C8.30041 16.7085 8.25417 16.6991 8.20574 16.6893C8.06646 16.6611 7.9091 16.6292 7.81845 16.6786M7.46055 16.0195L7.81845 16.6786M7.46055 16.0195C7.46014 16.0197 7.45973 16.02 7.45932 16.0202L7.81845 16.6786M7.46055 16.0195L7.00833 16.3456L7.44907 16.9524M7.81845 16.6786C7.75997 16.7104 7.66689 16.7835 7.5792 16.8524C7.53223 16.8892 7.4868 16.9249 7.44907 16.9524M7.44907 16.9524C6.08356 17.9442 4.22506 18.7621 2.43947 18.9075L1.47955 12.5913C1.81369 13.0707 2.23184 13.5879 2.63937 13.9746C2.71711 14.0485 2.71904 14.0818 2.69876 14.2204M7.44907 16.9524L7.00778 16.346C5.72798 17.2753 3.99833 18.0281 2.37862 18.1599L2.37853 18.1599C2.13328 18.1799 1.7184 18.1847 1.33416 18.1469C1.1422 18.128 0.979239 18.1005 0.858534 18.0674C0.801543 18.0517 0.767842 18.0385 0.751116 18.0314C0.749376 18.0187 0.745113 17.9617 0.782242 17.8345C0.833141 17.6604 0.941219 17.4937 1.13495 17.3001C1.29798 17.1371 1.48171 16.9916 1.70717 16.8129C1.76893 16.764 1.83383 16.7126 1.90229 16.6576C2.49297 16.1837 3.26886 15.5111 3.44094 14.3284L2.69876 14.2204M2.69876 14.2204L3.44085 14.329C3.44122 14.3265 3.44172 14.3233 3.44234 14.3194C3.45058 14.267 3.47801 14.0928 3.43835 13.9123C3.38142 13.6532 3.22579 13.4973 3.15602 13.431L3.15566 13.4306C2.7964 13.0897 2.41067 12.6156 2.09488 12.1624L2.09476 12.1623C0.651017 10.0918 0.48394 7.34217 1.73929 5.10957L1.73938 5.10941M2.69876 14.2204L1.73938 5.10941M1.73938 5.10941C2.31953 4.07704 2.9708 3.33354 3.89283 2.62162L1.73938 5.10941ZM3.89298 2.62151C5.31799 1.52186 7.11767 0.882953 9.07876 0.764948L3.89298 2.62151ZM9.07884 0.764944C10.4733 0.681203 11.9562 0.955993 13.1119 1.42209L9.07884 0.764944Z" stroke="#445EA9" stroke-width="1.5"/>
</svg>
