<svg width="13" height="12" viewBox="0 0 13 12" fill="none" xmlns="http://www.w3.org/2000/svg">
<path d="M5.97907 5.64631C5.78395 5.84171 5.78416 6.15829 5.97956 6.35342C6.17496 6.54855 6.49154 6.54833 6.68667 6.35293L5.97907 5.64631ZM10.6421 2.39199C10.8373 2.19659 10.8371 1.88001 10.6417 1.68488C10.4463 1.48975 10.1297 1.48997 9.93455 1.68537L10.6421 2.39199ZM12.2326 5.99962C12.2326 5.72347 12.0088 5.49962 11.7326 5.49962C11.4565 5.49962 11.2326 5.72347 11.2326 5.99962H12.2326ZM1.16514 4.43208L0.686671 4.28694L1.16514 4.43208ZM6.86191 0.62562L6.91092 0.128028L6.86191 0.62562ZM9.79744 2.5348C9.99271 2.73006 10.3093 2.73006 10.5046 2.5348C10.6998 2.33953 10.6998 2.02295 10.5046 1.82769L9.79744 2.5348ZM6.54234 2.78506C6.54234 2.50891 6.31848 2.28506 6.04234 2.28506C5.76619 2.28506 5.54234 2.50891 5.54234 2.78506L6.54234 2.78506ZM6.04234 6.61351L5.54234 6.61351L5.54234 7.11351L6.04234 7.11351L6.04234 6.61351ZM9.87079 7.11351C10.1469 7.11351 10.3708 6.88965 10.3708 6.61351C10.3708 6.33736 10.1469 6.11351 9.87079 6.11351L9.87079 7.11351ZM6.68667 6.35293L10.5023 2.53204L9.79469 1.82542L5.97907 5.64631L6.68667 6.35293ZM10.5023 2.53204L10.6421 2.39199L9.93455 1.68537L9.79469 1.82542L10.5023 2.53204ZM11.2326 5.99962C11.2326 7.13326 10.8395 8.23183 10.1204 9.10814L10.8934 9.74254C11.7593 8.68738 12.2326 7.36461 12.2326 5.99962H11.2326ZM10.1204 9.10814C9.4012 9.98446 8.40042 10.5843 7.28856 10.8055L7.48365 11.7863C8.82242 11.52 10.0274 10.7977 10.8934 9.74254L10.1204 9.10814ZM7.28856 10.8055C6.1767 11.0266 5.02256 10.8554 4.02277 10.321L3.55138 11.203C4.7552 11.8464 6.14488 12.0525 7.48365 11.7863L7.28856 10.8055ZM4.02277 10.321C3.02299 9.78664 2.23943 8.92211 1.80561 7.87477L0.881729 8.25745C1.40409 9.51854 2.34756 10.5595 3.55138 11.203L4.02277 10.321ZM1.80561 7.87477C1.37178 6.82742 1.31453 5.66205 1.64361 4.57722L0.686671 4.28694C0.290433 5.59316 0.359368 6.99636 0.881729 8.25745L1.80561 7.87477ZM1.64361 4.57722C1.97269 3.4924 2.66774 2.55523 3.61033 1.92542L3.05476 1.09395C1.9198 1.8523 1.08291 2.98072 0.686671 4.28694L1.64361 4.57722ZM3.61033 1.92542C4.55291 1.2956 5.68472 1.0121 6.8129 1.12321L6.91092 0.128028C5.5525 -0.00576527 4.18971 0.335595 3.05476 1.09395L3.61033 1.92542ZM6.8129 1.12321C7.94002 1.23422 8.99384 1.73225 9.79517 2.53252L10.5018 1.82495C9.53695 0.861354 8.26806 0.261695 6.91092 0.128028L6.8129 1.12321ZM9.79526 2.53261C9.79592 2.53327 9.7966 2.53396 9.79744 2.5348L10.5046 1.82769C10.5037 1.82686 10.5027 1.82587 10.5017 1.82485L9.79526 2.53261ZM5.54234 2.78506L5.54234 6.61351L6.54234 6.61351L6.54234 2.78506L5.54234 2.78506ZM6.04234 7.11351L9.87079 7.11351L9.87079 6.11351L6.04234 6.11351L6.04234 7.11351Z" fill="#00CD6B"/>
</svg>
