<svg width="34" height="33" viewBox="0 0 34 33" fill="none" xmlns="http://www.w3.org/2000/svg">
<path d="M19.0963 16.2789L27.1016 8.22525" stroke="#00CD6B" stroke-width="1.2" stroke-linecap="round"/>
<path d="M30.6383 16.2789C30.6383 18.9632 29.7118 21.5642 28.0173 23.6386C26.3228 25.713 23.9652 27.1324 21.3466 27.6556C18.7281 28.1789 16.0098 27.7739 13.6549 26.5093C11.2999 25.2447 9.45358 23.1985 8.4312 20.7187C7.4088 18.239 7.27385 15.4796 8.04943 12.911C8.82499 10.3424 10.4629 8.12403 12.6833 6.63348C14.9037 5.14296 17.5694 4.47224 20.2264 4.73514C22.8833 4.99805 25.3679 6.17841 27.2564 8.07576" stroke="#00CD6B" stroke-width="1.2" stroke-linecap="round"/>
<path d="M19.0057 9.7428C19.0057 9.46602 18.7824 9.24164 18.5069 9.24164C18.2314 9.24164 18.0081 9.46602 18.0081 9.7428L19.0057 9.7428ZM18.5069 17.527L18.0081 17.527L18.0081 18.0282L18.5069 18.0282L18.5069 17.527ZM26.2551 18.0282C26.5306 18.0282 26.7539 17.8038 26.7539 17.527C26.7539 17.2503 26.5306 17.0259 26.2551 17.0259L26.2551 18.0282ZM18.0081 9.7428L18.0081 17.527L19.0057 17.527L19.0057 9.7428L18.0081 9.7428ZM18.5069 18.0282L26.2551 18.0282L26.2551 17.0259L18.5069 17.0259L18.5069 18.0282Z" fill="#00CD6B"/>
</svg>
