<svg width="18" height="19" viewBox="0 0 18 19" fill="none" xmlns="http://www.w3.org/2000/svg">
<path d="M16.0264 15.0758L16.3664 14.776C16.5238 14.6372 16.6709 14.5623 16.7655 14.514C16.7741 14.5096 16.7823 14.5055 16.79 14.5015C16.8732 14.4586 16.9105 14.4357 16.9582 14.3845L16.9583 14.3844C17.0345 14.3027 17.0839 14.1977 17.0951 13.9571L17.0951 13.9569C17.1103 13.634 17.0378 13.5269 16.9833 13.4602C16.9414 13.409 16.8928 13.3644 16.8078 13.2865L16.7962 13.2759C16.7123 13.199 16.5986 13.0936 16.4943 12.9549L16.2369 12.6126L16.5356 12.3057C16.5466 12.2943 16.5507 12.2897 16.561 12.2786L16.5622 12.2773C16.5722 12.2664 16.6034 12.2325 16.6484 12.1992C16.6866 12.1709 16.7239 12.1512 16.7363 12.1447L16.7382 12.1437C16.7449 12.1402 16.7505 12.1372 16.7561 12.1343C16.7664 12.1289 16.7767 12.1235 16.7938 12.1143C16.9323 12.0396 17.0827 11.9884 17.1245 11.9742C17.1304 11.9722 17.1341 11.9709 17.1353 11.9704C17.136 11.9702 17.1367 11.9699 17.1375 11.9696C17.1508 11.9645 17.1853 11.9512 17.2827 11.8585C17.3769 11.7686 17.463 11.6094 17.471 11.3124L17.471 11.3121C17.4825 10.8925 17.321 10.7632 17.082 10.5719C16.9976 10.5043 16.9036 10.429 16.804 10.3305C16.7949 10.3215 16.7871 10.3133 16.782 10.3079L16.7664 10.2909L16.7606 10.2845L16.7563 10.2798C16.7551 10.2785 16.7545 10.2778 16.7542 10.2774C16.754 10.2773 16.754 10.2773 16.754 10.2772L16.74 10.2625L16.7264 10.2454L16.656 10.1569L16.333 9.75078L16.7508 9.44308C16.8193 9.39263 16.9223 9.33114 16.9966 9.28684C17.0239 9.27057 17.0473 9.25662 17.0636 9.24638C17.1531 9.19039 17.2252 9.13717 17.2854 9.07312C17.3866 8.96534 17.513 8.76584 17.4989 8.30089L16.0264 15.0758ZM16.0264 15.0758L16.2916 15.4435M16.0264 15.0758L16.2916 15.4435M16.2916 15.4435L16.4723 15.6941L16.4802 15.7051M16.2916 15.4435L16.4802 15.7051M16.8081 7.38118L16.808 7.38117C16.2409 7.29251 15.4313 7.33275 14.5431 7.3769C14.4827 7.3799 14.422 7.38291 14.3609 7.38591C13.4569 7.4303 12.4564 7.47264 11.7657 7.29432L11.3951 7.19865L11.3907 6.81592C11.3873 6.51854 11.4871 6.26287 11.5774 6.07108C11.6151 5.99094 11.6569 5.91079 11.693 5.84144C11.7001 5.82786 11.7069 5.8147 11.7135 5.80203C11.7563 5.71939 11.7905 5.65113 11.8176 5.58676L11.8177 5.58651C12.3126 4.41351 12.6515 3.60687 12.5255 2.3691L12.5255 2.3691C12.3847 0.985714 11.853 0.600636 11.5409 0.521728C11.1582 0.424996 10.8532 0.659467 10.8007 0.837447L10.8007 0.837462C10.762 0.968677 10.7455 1.13088 10.7434 1.33477C10.7421 1.46361 10.7457 1.57802 10.7497 1.70194C10.7525 1.79136 10.7555 1.88572 10.7569 1.99402C10.7625 2.42565 10.7454 3.04413 10.3076 3.48833L10.3074 3.48854C10.2534 3.54333 10.2046 3.59231 10.1594 3.63762C9.96797 3.82969 9.84214 3.95593 9.66053 4.17996L9.66048 4.18003C9.53871 4.33019 9.47665 4.38911 9.39738 4.46437C9.36436 4.49573 9.32835 4.52992 9.2838 4.57472L8.92927 4.22214M16.8081 7.38118L6.65774 16.5483C6.64602 15.9214 6.65016 15.2909 6.65432 14.6553C6.65647 14.3279 6.65862 13.9991 6.65862 13.6688C6.65862 13.2319 6.65527 12.8265 6.65212 12.447C6.64002 10.9854 6.63109 9.90782 6.82937 8.89664C7.07029 7.66806 7.62491 6.52952 8.96112 4.98514L8.96139 4.98483C9.04149 4.8921 9.09759 4.81216 9.13791 4.75472C9.14425 4.74569 9.1502 4.73721 9.15579 4.72933C9.19421 4.67516 9.22639 4.63257 9.28419 4.57432L8.92927 4.22214M16.8081 7.38118C17.1905 7.44092 17.4826 7.7695 17.4989 8.30085L16.8081 7.38118ZM8.92927 4.22214C8.83278 4.31939 8.78131 4.39257 8.72737 4.46926C8.68717 4.52642 8.6456 4.58552 8.583 4.65799L12.1352 6.07491C12.1861 5.97699 12.2369 5.87942 12.2784 5.78086L12.2897 5.75402C12.778 4.59668 13.1622 3.68615 13.023 2.31847C12.7203 -0.654996 10.6007 -0.251196 10.3212 0.69591C10.2282 1.01072 10.2394 1.37538 10.2504 1.73549C10.2668 2.27336 10.2829 2.80108 9.95151 3.13737C9.901 3.18857 9.85426 3.23544 9.81008 3.27974C9.61577 3.4746 9.47097 3.6198 9.27212 3.8651C9.17138 3.98932 9.13713 4.02172 9.07024 4.08498C9.03612 4.11724 8.99352 4.15754 8.92927 4.22214ZM6.78934 16.8781L6.7894 16.8781C7.05334 16.9025 7.39295 16.894 7.73768 16.8854C7.9032 16.8813 8.0699 16.8771 8.22996 16.8765H8.23002C8.98725 16.8739 9.7418 16.8742 10.4953 16.8746C11.6384 16.8751 12.7791 16.8756 13.9229 16.8658C14.1769 16.8635 14.4484 16.8728 14.706 16.8816C14.8218 16.8856 14.9348 16.8894 15.0421 16.8921C15.4052 16.9011 15.7226 16.8977 15.9877 16.8573C16.256 16.8165 16.4138 16.7456 16.5035 16.6654C16.5761 16.6005 16.6525 16.4873 16.6608 16.2288L6.78934 16.8781ZM6.78934 16.8781C6.73693 16.8733 6.69898 16.8675 6.67222 16.8621M6.78934 16.8781L6.67222 16.8621M16.4802 15.7051L16.4887 15.7156M16.4802 15.7051L16.4887 15.7156M16.4887 15.7156C16.5845 15.8344 16.6156 15.8879 16.6327 15.9345M16.4887 15.7156L16.6327 15.9345M6.67222 16.8621C6.672 16.8604 6.67177 16.8585 6.67156 16.8567C6.66335 16.7864 6.66055 16.6939 6.65775 16.5485L6.67222 16.8621ZM16.6327 15.9345C16.6489 15.9782 16.6664 16.0542 16.6608 16.2287L16.6327 15.9345Z" fill="#1443C3" stroke="#1443C3"/>
<path d="M0.5 18.0381V9.7679C0.5 9.64856 0.507388 9.57415 0.516308 9.52877C0.55972 9.5207 0.629991 9.51416 0.741921 9.51416H4.09686C4.20755 9.51416 4.27843 9.51991 4.32348 9.52741C4.33187 9.57448 4.33852 9.64964 4.33852 9.7679V17.96C4.33852 18.1097 4.32031 18.1757 4.31157 18.1988C4.28889 18.2071 4.22849 18.2227 4.09686 18.2227H0.741921C0.643115 18.2227 0.579609 18.214 0.540831 18.2041C0.530615 18.2014 0.523082 18.199 0.517742 18.197C0.510655 18.1767 0.5 18.1301 0.5 18.0381ZM4.32297 18.1937C4.32298 18.1938 4.32267 18.194 4.322 18.1943L4.32297 18.1937ZM0.523909 18.2101C0.523787 18.2103 0.522769 18.2089 0.521209 18.2056C0.523252 18.2083 0.524031 18.2099 0.523909 18.2101Z" fill="#1443C3" stroke="#1443C3"/>
</svg>
