<svg width="101" height="76" viewBox="0 0 101 76" fill="none" xmlns="http://www.w3.org/2000/svg">
<path d="M0 10.4694C0 4.68731 4.45591 0 9.95255 0H91.0474C96.5441 0 101 4.68731 101 10.4694C101 16.2515 96.5441 20.9388 91.0474 20.9388H9.95255C4.45591 20.9388 0 16.2515 0 10.4694Z" fill="#1443C3"/>
<path d="M0 38C0 32.2179 4.45591 27.5306 9.95255 27.5306H69.6679C75.1645 27.5306 79.6204 32.2179 79.6204 38C79.6204 43.7821 75.1645 48.4694 69.6679 48.4694H9.95255C4.45591 48.4694 0 43.7821 0 38Z" fill="#174BDB" fill-opacity="0.9"/>
<path d="M0 65.5306C0 59.7485 4.45591 55.0612 9.95255 55.0612H30.9635C36.4601 55.0612 40.9161 59.7485 40.9161 65.5306C40.9161 71.3127 36.4601 76 30.9635 76H9.95255C4.45591 76 0 71.3127 0 65.5306Z" fill="#7392FF"/>
</svg>
