<svg width="171" height="161" viewBox="0 0 171 161" fill="none" xmlns="http://www.w3.org/2000/svg">
<circle cx="78.0591" cy="74.4136" r="60.8824" fill="url(#paint0_linear_12601_11972)" fill-opacity="0.25"/>
<circle cx="92.9415" cy="154.233" r="6.76471" fill="url(#paint1_linear_12601_11972)" fill-opacity="0.25"/>
<circle cx="153.823" cy="96.0577" r="6.76471" fill="url(#paint2_linear_12601_11972)" fill-opacity="0.25"/>
<circle cx="151.794" cy="152.207" r="7.44118" fill="url(#paint3_linear_12601_11972)" fill-opacity="0.25"/>
<circle cx="136.912" cy="134.619" r="2.02941" fill="url(#paint4_linear_12601_11972)" fill-opacity="0.25"/>
<circle cx="46.2648" cy="12.8536" r="2.02941" fill="url(#paint5_linear_12601_11972)" fill-opacity="0.25"/>
<circle cx="26.6472" cy="142.059" r="12.1765" fill="url(#paint6_linear_12601_11972)" fill-opacity="0.25"/>
<circle cx="6.35334" cy="89.2957" r="2.70588" fill="url(#paint7_linear_12601_11972)" fill-opacity="0.25"/>
<circle cx="156.529" cy="20.295" r="13.5294" fill="url(#paint8_linear_12601_11972)" fill-opacity="0.25"/>
<circle cx="115.941" cy="6.76471" r="6.76471" fill="url(#paint9_linear_12601_11972)" fill-opacity="0.25"/>
<circle cx="9.05905" cy="14.8833" r="8.11765" fill="url(#paint10_linear_12601_11972)" fill-opacity="0.25"/>
<path d="M66 59L66 56C66 49.3726 71.3726 44 78 44V44C84.6274 44 90 49.3726 90 56L90 59" stroke="#445EA9" stroke-width="2" stroke-linecap="round"/>
<path d="M87 77V71" stroke="#445EA9" stroke-width="2" stroke-linecap="round"/>
<path d="M69 77V71" stroke="#445EA9" stroke-width="2" stroke-linecap="round"/>
<path d="M54 63C54 61.1144 54 60.1716 54.5858 59.5858C55.1716 59 56.1144 59 58 59H98C99.8856 59 100.828 59 101.414 59.5858C102 60.1716 102 61.1144 102 63V90C102 93.7712 102 95.6569 100.828 96.8284C99.6569 98 97.7712 98 94 98H62C58.2288 98 56.3431 98 55.1716 96.8284C54 95.6569 54 93.7712 54 90V63Z" stroke="#445EA9" stroke-width="2"/>
<defs>
<linearGradient id="paint0_linear_12601_11972" x1="103.021" y1="124.946" x2="43.3562" y2="43.3636" gradientUnits="userSpaceOnUse">
<stop stop-color="#1F51FF"/>
<stop offset="0.598958" stop-color="#1F51FF"/>
<stop offset="1" stop-color="#1F51FF" stop-opacity="0.75"/>
</linearGradient>
<linearGradient id="paint1_linear_12601_11972" x1="95.715" y1="159.848" x2="89.0856" y2="150.783" gradientUnits="userSpaceOnUse">
<stop stop-color="#1F51FF"/>
<stop offset="0.598958" stop-color="#1F51FF"/>
<stop offset="1" stop-color="#1F51FF" stop-opacity="0.75"/>
</linearGradient>
<linearGradient id="paint2_linear_12601_11972" x1="156.597" y1="101.672" x2="149.967" y2="92.6077" gradientUnits="userSpaceOnUse">
<stop stop-color="#1F51FF"/>
<stop offset="0.598958" stop-color="#1F51FF"/>
<stop offset="1" stop-color="#1F51FF" stop-opacity="0.75"/>
</linearGradient>
<linearGradient id="paint3_linear_12601_11972" x1="154.845" y1="158.383" x2="147.552" y2="148.412" gradientUnits="userSpaceOnUse">
<stop stop-color="#1F51FF"/>
<stop offset="0.598958" stop-color="#1F51FF"/>
<stop offset="1" stop-color="#1F51FF" stop-opacity="0.75"/>
</linearGradient>
<linearGradient id="paint4_linear_12601_11972" x1="137.744" y1="136.304" x2="135.755" y2="133.584" gradientUnits="userSpaceOnUse">
<stop stop-color="#1F51FF"/>
<stop offset="0.598958" stop-color="#1F51FF"/>
<stop offset="1" stop-color="#1F51FF" stop-opacity="0.75"/>
</linearGradient>
<linearGradient id="paint5_linear_12601_11972" x1="47.0968" y1="14.538" x2="45.108" y2="11.8186" gradientUnits="userSpaceOnUse">
<stop stop-color="#1F51FF"/>
<stop offset="0.598958" stop-color="#1F51FF"/>
<stop offset="1" stop-color="#1F51FF" stop-opacity="0.75"/>
</linearGradient>
<linearGradient id="paint6_linear_12601_11972" x1="31.6395" y1="152.166" x2="19.7066" y2="135.849" gradientUnits="userSpaceOnUse">
<stop stop-color="#1F51FF"/>
<stop offset="0.598958" stop-color="#1F51FF"/>
<stop offset="1" stop-color="#1F51FF" stop-opacity="0.75"/>
</linearGradient>
<linearGradient id="paint7_linear_12601_11972" x1="7.46275" y1="91.5416" x2="4.81099" y2="87.9157" gradientUnits="userSpaceOnUse">
<stop stop-color="#1F51FF"/>
<stop offset="0.598958" stop-color="#1F51FF"/>
<stop offset="1" stop-color="#1F51FF" stop-opacity="0.75"/>
</linearGradient>
<linearGradient id="paint8_linear_12601_11972" x1="162.076" y1="31.5244" x2="148.818" y2="13.395" gradientUnits="userSpaceOnUse">
<stop stop-color="#1F51FF"/>
<stop offset="0.598958" stop-color="#1F51FF"/>
<stop offset="1" stop-color="#1F51FF" stop-opacity="0.75"/>
</linearGradient>
<linearGradient id="paint9_linear_12601_11972" x1="118.715" y1="12.3794" x2="112.086" y2="3.31471" gradientUnits="userSpaceOnUse">
<stop stop-color="#1F51FF"/>
<stop offset="0.598958" stop-color="#1F51FF"/>
<stop offset="1" stop-color="#1F51FF" stop-opacity="0.75"/>
</linearGradient>
<linearGradient id="paint10_linear_12601_11972" x1="12.3873" y1="21.6209" x2="4.43199" y2="10.7433" gradientUnits="userSpaceOnUse">
<stop stop-color="#1F51FF"/>
<stop offset="0.598958" stop-color="#1F51FF"/>
<stop offset="1" stop-color="#1F51FF" stop-opacity="0.75"/>
</linearGradient>
</defs>
</svg>
