<svg width="19" height="19" viewBox="0 0 19 19" fill="none" xmlns="http://www.w3.org/2000/svg">
<path d="M11.2492 4.56971L11.9514 4.5249V3.82123V1.61337C12.028 1.69623 12.1049 1.7808 12.1834 1.86699C12.1958 1.88068 12.2083 1.89441 12.2208 1.90817C12.3818 2.08502 12.551 2.27012 12.7192 2.43831C13.0438 2.763 13.3679 3.08708 13.6919 3.41113C14.0151 3.73428 14.3382 4.0574 14.6617 4.38107L14.6619 4.38125C14.8162 4.53552 15.0595 4.77017 15.3432 5.04385C15.3928 5.09173 15.4437 5.14081 15.4955 5.19085C15.8475 5.5306 16.2521 5.92234 16.6455 6.31288C17.0399 6.70445 17.4172 7.08904 17.716 7.41486C17.7961 7.5022 17.8665 7.58106 17.9277 7.65141C16.3902 9.29806 13.8401 11.9823 11.9547 13.8367L11.9514 11.0324L11.9505 10.2619L11.1803 10.2836C6.30316 10.4213 2.8791 13.0017 0.754042 16.0926C0.915308 9.69295 5.31473 4.94834 11.2492 4.56971Z" stroke="#283F82" stroke-width="1.5"/>
</svg>
