<svg width="34" height="34" viewBox="0 0 34 34" fill="none" xmlns="http://www.w3.org/2000/svg">
<path d="M14.2771 17.1008L6.32031 25.1056" stroke="#1F51FF" stroke-width="1.2" stroke-linecap="round"/>
<path d="M2.80898 17.1008C2.80898 14.4336 3.72956 11.8492 5.4133 9.78799C7.09699 7.72687 9.4395 6.31652 12.0414 5.79656C14.6433 5.27661 17.3442 5.67906 19.6841 6.93559C22.0241 8.19216 23.8586 10.2253 24.8745 12.6893C25.8904 15.1532 26.0245 17.895 25.2538 20.4473C24.4832 22.9995 22.8558 25.2037 20.6495 26.6847C18.4433 28.1657 15.7945 28.8322 13.1545 28.571C10.5145 28.3097 8.04582 27.1369 6.16929 25.2516" stroke="#1F51FF" stroke-width="1.2" stroke-linecap="round"/>
<path d="M14.3634 23.5973C14.3634 23.874 14.5868 24.0984 14.8623 24.0984C15.1378 24.0984 15.3611 23.874 15.3611 23.5973L14.3634 23.5973ZM14.8623 15.8602L15.3611 15.8602L15.3611 15.359L14.8623 15.359L14.8623 15.8602ZM7.16106 15.359C6.88556 15.359 6.66222 15.5834 6.66222 15.8602C6.66222 16.137 6.88556 16.3614 7.16106 16.3614L7.16106 15.359ZM15.3611 23.5973L15.3611 15.8602L14.3634 15.8602L14.3634 23.5973L15.3611 23.5973ZM14.8623 15.359L7.16106 15.359L7.16106 16.3614L14.8623 16.3614L14.8623 15.359Z" fill="#1F51FF"/>
</svg>
