<svg width="12" height="12" viewBox="0 0 12 12" fill="none" xmlns="http://www.w3.org/2000/svg">
<path d="M6.34339 6.35292C6.53852 6.15753 6.5383 5.84094 6.3429 5.64582C6.1475 5.45069 5.83092 5.45091 5.6358 5.6463L6.34339 6.35292ZM1.68032 9.60725C1.48519 9.80264 1.48541 10.1192 1.68081 10.3144C1.8762 10.5095 2.19279 10.5093 2.38791 10.3139L1.68032 9.60725ZM0.0898438 5.99962C0.0898438 6.27576 0.313701 6.49962 0.589844 6.49962C0.865986 6.49962 1.08984 6.27576 1.08984 5.99962H0.0898438ZM1.81559 2.57389L2.20209 2.89109L2.20209 2.89109L1.81559 2.57389ZM4.93636 0.703377L5.0339 1.19377L5.0339 1.19377L4.93636 0.703377ZM10.9788 3.93313L11.4407 3.74179L11.4407 3.74179L10.9788 3.93313ZM11.1573 7.56716L11.6358 7.7123L11.6358 7.7123L11.1573 7.56716ZM5.46055 11.3736L5.50956 10.876L5.50956 10.876L5.46055 11.3736ZM2.52502 9.46444C2.32976 9.26918 2.01317 9.26918 1.81791 9.46444C1.62265 9.6597 1.62265 9.97628 1.81791 10.1715L2.52502 9.46444ZM5.78041 9.2142C5.78041 9.49034 6.00427 9.7142 6.28041 9.7142C6.55655 9.7142 6.78041 9.49034 6.78041 9.2142L5.78041 9.2142ZM6.28041 5.38575L6.78041 5.38575L6.78041 4.88575L6.28041 4.88575L6.28041 5.38575ZM2.45196 4.88574C2.17582 4.88574 1.95196 5.1096 1.95196 5.38574C1.95196 5.66189 2.17582 5.88574 2.45196 5.88574L2.45196 4.88574ZM5.6358 5.6463L1.82018 9.46719L2.52777 10.1738L6.34339 6.35292L5.6358 5.6463ZM1.82018 9.46719L1.68032 9.60725L2.38791 10.3139L2.52777 10.1738L1.82018 9.46719ZM1.08984 5.99962C1.08984 4.86598 1.48292 3.76741 2.20209 2.89109L1.42908 2.2567C0.563138 3.31185 0.0898438 4.63462 0.0898438 5.99962H1.08984ZM2.20209 2.89109C2.92127 2.01477 3.92204 1.41493 5.0339 1.19377L4.83881 0.212985C3.50004 0.479282 2.29503 1.20154 1.42908 2.2567L2.20209 2.89109ZM5.0339 1.19377C6.14576 0.972608 7.29991 1.14381 8.29969 1.6782L8.77109 0.796283C7.56727 0.152828 6.17758 -0.0533128 4.83881 0.212985L5.0339 1.19377ZM8.29969 1.6782C9.29947 2.2126 10.083 3.07712 10.5169 4.12447L11.4407 3.74179C10.9184 2.48069 9.9749 1.43974 8.77109 0.796283L8.29969 1.6782ZM10.5169 4.12447C10.9507 5.17182 11.0079 6.33719 10.6789 7.42201L11.6358 7.7123C12.032 6.40608 11.9631 5.00288 11.4407 3.74179L10.5169 4.12447ZM10.6789 7.42201C10.3498 8.50684 9.65473 9.444 8.71214 10.0738L9.26771 10.9053C10.4027 10.1469 11.2396 9.01852 11.6358 7.7123L10.6789 7.42201ZM8.71214 10.0738C7.76955 10.7036 6.63774 10.9871 5.50956 10.876L5.41154 11.8712C6.76996 12.005 8.13275 11.6636 9.26771 10.9053L8.71214 10.0738ZM5.50956 10.876C4.38245 10.765 3.32862 10.267 2.5273 9.46672L1.82065 10.1743C2.78552 11.1379 4.0544 11.7375 5.41154 11.8712L5.50956 10.876ZM2.5272 9.46662C2.52653 9.46594 2.52581 9.46523 2.52502 9.46444L1.81791 10.1715C1.81879 10.1724 1.81975 10.1734 1.82075 10.1744L2.5272 9.46662ZM6.78041 9.2142L6.78041 5.38575L5.78041 5.38575L5.78041 9.2142L6.78041 9.2142ZM6.28041 4.88575L2.45196 4.88574L2.45196 5.88574L6.28041 5.88575L6.28041 4.88575Z" fill="#1F51FF"/>
</svg>
